# xmcd
#
# Track frame offsets:
# 150
# 11366
# 24288
# 40643
# 63155
# 82690
# 88986
# 99514
# 116432
# 133043
# 147041
# 157547
# 174984
# 216634
# 258284
# 290521
#
# Disc length: 4188 seconds
#
# Revision: 0
# Processed by: cddbd v1.4PL0 Copyright (c) Steve Scherf et al.
# Submitted via: Audion 3.0.2 (http://www.panic.com/audion/)
#
DISCID=c3105a10
DTITLE=Guided by Voices - Live in Amsterdam
DYEAR=1900
DGENRE=
TTITLE0=Jane of the Waking Universe
TTITLE1=Tractor Rape Chain
TTITLE2=I've Owned You For Centuries/Stabbing a Star
TTITLE3=I Am A Tree
TTITLE4=The GoldHeart Mountaintop Queen Directory/Lord of Overstock
TTITLE5=Shocker in Gloomtown
TTITLE6=Now to War
TTITLE7=Mute Superstar/Hot Freaks
TTITLE8=The Old Grunt/Bulldog Skin
TTITLE9=Sad if I Lost it
TTITLE10=I Am A Scientist
TTITLE11=Game of Pricks/Motor Away
TTITLE12=1
TTITLE13=2
TTITLE14=3
TTITLE15=4
EXTD=
EXTT0=
EXTT1=
EXTT2=
EXTT3=
EXTT4=
EXTT5=
EXTT6=
EXTT7=
EXTT8=
EXTT9=
EXTT10=
EXTT11=
EXTT12=
EXTT13=
EXTT14=
EXTT15=
PLAYORDER=
